<svg xmlns="http://www.w3.org/2000/svg" viewBox="0 0 64 64">
  <defs>
    <linearGradient id="g" x1="0%" y1="0%" x2="100%" y2="100%">
      <stop offset="0%" stop-color="#3a59f1"/>
      <stop offset="100%" stop-color="#081c7e"/>
    </linearGradient>
  </defs>
  <!-- Globe circle -->
  <circle cx="32" cy="32" r="30" fill="none" stroke="url(#g)" stroke-width="2.5"/>
  <!-- Horizontal line -->
  <ellipse cx="32" cy="32" rx="30" ry="10" fill="none" stroke="url(#g)" stroke-width="1.5"/>
  <!-- Vertical ellipse -->
  <ellipse cx="32" cy="32" rx="12" ry="30" fill="none" stroke="url(#g)" stroke-width="1.5"/>
  <!-- Dots pattern -->
  <circle cx="10" cy="20" r="2" fill="#3a59f1" opacity="0.6"/>
  <circle cx="16" cy="14" r="1.8" fill="#3a59f1" opacity="0.5"/>
  <circle cx="22" cy="10" r="1.5" fill="#081c7e" opacity="0.5"/>
  <circle cx="14" cy="26" r="1.5" fill="#3a59f1" opacity="0.4"/>
  <circle cx="8" cy="32" r="1.8" fill="#081c7e" opacity="0.5"/>
  <circle cx="18" cy="20" r="1.3" fill="#081c7e" opacity="0.4"/>
  <circle cx="48" cy="18" r="2" fill="#3a59f1" opacity="0.5"/>
  <circle cx="52" cy="24" r="1.8" fill="#081c7e" opacity="0.4"/>
  <circle cx="44" cy="14" r="1.5" fill="#3a59f1" opacity="0.5"/>
  <circle cx="54" cy="32" r="1.5" fill="#3a59f1" opacity="0.4"/>
  <circle cx="50" cy="40" r="1.8" fill="#081c7e" opacity="0.5"/>
  <circle cx="46" cy="46" r="1.3" fill="#3a59f1" opacity="0.4"/>
  <circle cx="12" cy="44" r="1.8" fill="#081c7e" opacity="0.5"/>
  <circle cx="18" cy="48" r="1.5" fill="#3a59f1" opacity="0.4"/>
  <circle cx="24" cy="50" r="1.3" fill="#081c7e" opacity="0.4"/>
  <circle cx="38" cy="48" r="1.8" fill="#3a59f1" opacity="0.5"/>
  <circle cx="42" cy="42" r="1.5" fill="#081c7e" opacity="0.4"/>
  <circle cx="28" cy="16" r="1.3" fill="#d4a843" opacity="0.5"/>
  <circle cx="36" cy="12" r="1.5" fill="#d4a843" opacity="0.4"/>
  <circle cx="32" cy="22" r="1.8" fill="#3a59f1" opacity="0.3"/>
  <circle cx="26" cy="38" r="1.5" fill="#081c7e" opacity="0.3"/>
  <circle cx="38" cy="36" r="1.3" fill="#3a59f1" opacity="0.3"/>
</svg>
